<svg xmlns="http://www.w3.org/2000/svg" viewBox="0 0 800 600"><defs><style>.cls-1{isolation:isolate;}.cls-2{fill:#116b47;}.cls-3{fill:#219065;}.cls-4{opacity:0.2;mix-blend-mode:multiply;}</style></defs><title>Artboard 1</title><g class="cls-1"><g id="Layer_1" data-name="Layer 1"><polygon class="cls-2" points="-19.41 192.13 -19.41 602 800.34 602 -19.41 192.13"/><polygon class="cls-3" points="292.59 484.5 188.82 308.99 85.06 484.5 292.59 484.5"/><polygon class="cls-3" points="271.7 428.68 188.82 288.49 105.94 428.68 271.7 428.68"/><polygon class="cls-3" points="188.82 267.99 126.83 372.86 250.82 372.86 188.82 267.99"/><polygon class="cls-3" points="188.82 247.49 147.71 317.03 229.94 317.03 188.82 247.49"/><g class="cls-4"><polygon class="cls-3" points="188.83 309 188.82 308.99 85.06 484.5 188.83 484.5 188.83 309"/><polygon class="cls-3" points="188.83 288.5 188.82 288.49 105.94 428.68 188.83 428.68 188.83 288.5"/><polygon class="cls-3" points="188.83 268 188.82 267.99 126.83 372.86 188.83 372.86 188.83 268"/><polygon class="cls-3" points="188.83 247.5 188.82 247.49 147.71 317.03 188.83 317.03 188.83 247.5"/></g></g></g></svg>