<?xml version="1.0" encoding="utf-8"?>
<!-- Generator: Adobe Illustrator 21.0.0, SVG Export Plug-In . SVG Version: 6.00 Build 0)  -->
<svg version="1.1" id="Layer_1" xmlns="http://www.w3.org/2000/svg" xmlns:xlink="http://www.w3.org/1999/xlink" x="0px" y="0px"
	 viewBox="0 0 800 600" style="enable-background:new 0 0 800 600;" xml:space="preserve">
<style type="text/css">
	.st0{fill:#219065;}
	.st1{fill:#116B47;}
	.st2{opacity:0.2;}
</style>
<polygon class="st0" points="800,203 800,603 0,603 "/>
<g>
	<polygon class="st1" points="258,574.2 168.8,423.3 79.5,574.2 	"/>
	<polygon class="st1" points="240,526.2 168.8,405.6 97.5,526.2 	"/>
	<polygon class="st1" points="168.8,388 115.4,478.2 222.1,478.2 	"/>
	<polygon class="st1" points="168.8,370.4 133.4,430.2 204.1,430.2 	"/>
</g>
<g>
	<g>
		<polygon class="st1" points="523.3,442.2 439.7,300.7 356,442.2 		"/>
		<polygon class="st1" points="439.7,280 377.1,385.8 502.3,385.8 		"/>
		<polygon class="st1" points="439.7,259.3 398.2,329.5 481.2,329.5 		"/>
	</g>
	<g class="st2">
		<polygon class="st0" points="439.7,300.7 439.7,300.7 356,442.2 439.7,442.2 		"/>
		<polygon class="st0" points="439.7,280 439.7,280 377.1,385.8 439.7,385.8 		"/>
		<polygon class="st0" points="439.7,259.3 439.7,259.3 398.2,329.5 439.7,329.5 		"/>
	</g>
</g>
<g>
	<g>
		<polygon class="st1" points="710.7,383.7 627,242.2 543.3,383.7 		"/>
		<polygon class="st1" points="627,221.5 564.4,327.4 689.6,327.4 		"/>
		<polygon class="st1" points="627,200.8 585.5,271 668.5,271 		"/>
	</g>
	<g class="st2">
		<polygon class="st0" points="627,242.2 627,242.2 543.3,383.7 627,383.7 		"/>
		<polygon class="st0" points="627,221.5 627,221.5 564.4,327.4 627,327.4 		"/>
		<polygon class="st0" points="627,200.8 627,200.8 585.5,271 627,271 		"/>
	</g>
</g>
</svg>
